<svg width="559" height="410" viewBox="0 0 559 410" fill="none" xmlns="http://www.w3.org/2000/svg">
<path d="M293.616 397.797C356.187 388.843 449.207 292.451 385.413 264.815C386.501 256.004 395.916 234.569 424.867 219.317C423.05 218.385 419.293 217.09 411.466 219.414C418.097 206.346 439.154 181.509 477.675 186.652C475.928 185.673 472.843 181.723 474.479 173.747C494.246 195.796 524.096 178.021 534.354 211.546C544.886 214.72 563.877 226.861 555.58 250.039C550.762 243.736 537.325 232.389 522.126 237.421C522.126 237.421 521.391 237.507 520.047 237.8C514.459 241.462 501.272 260.454 501.272 260.454C501.272 260.454 493.197 291.592 487.585 309.015C472.476 355.927 394.952 433.569 293.616 397.797Z" fill="#723496"/>
<path d="M521.914 237.491C507.203 235.384 472.866 243.762 442.741 321.339C428.967 349.031 384.29 412.392 302.368 399.903C299.339 399.651 296.436 399.131 293.689 398.321C296.627 398.943 299.52 399.469 302.368 399.903C363.184 404.957 475.14 301.791 405.924 262.91C408.121 254.529 421.444 237.799 452.585 228.837C450.648 227.56 444.812 226.888 435.86 227.713C444.536 218.018 466.796 200.21 496.891 210.612C506.062 206.785 511.638 211.243 513.28 213.951C516.317 214.471 523.505 215.388 529.184 215.134C529.395 215.117 529.6 215.103 529.798 215.092C529.941 215.084 530.081 215.078 530.216 215.073C529.879 215.098 529.534 215.118 529.184 215.134C524.992 215.471 518.508 217.053 519.681 221.371C517.052 225.146 513.588 233.292 521.914 237.491Z" fill="url(#paint0_linear_385_150)"/>
<path d="M534.283 211.614C544.816 214.787 563.807 226.929 555.51 250.107C550.691 243.804 537.255 232.457 522.055 237.489C518.018 241.689 516.102 243.408 503.382 259.677C499.667 266.133 493.129 292.005 487.517 309.429C472.408 356.341 394.881 433.637 293.546 397.865C381.003 416.385 428.344 349.537 442.598 320.883C472.722 243.306 507.345 235.383 522.055 237.489C513.73 233.29 516.908 224.69 519.538 220.915C518.364 216.597 524.848 215.015 529.04 214.678C529.251 214.661 529.457 214.647 529.655 214.636C529.798 214.628 529.937 214.622 530.073 214.617C531.669 214.207 534.745 213.033 534.283 211.614Z" fill="url(#paint1_linear_385_150)"/>
<path d="M511.874 208.522C512.86 207.818 514.244 207.426 515.011 206.981C526.089 204.338 532.415 211.227 533.841 214.866C524.802 220.583 515.301 218.618 510.875 209.7C510.936 209.245 511.333 208.862 511.874 208.522Z" fill="white"/>
<path d="M246.906 187.387C316.679 205.111 337.657 276.059 336.484 306.646C315.137 222.67 228.273 208.268 139.812 181.326C51.5143 151.501 10.5598 81.5227 0.273438 42.0457C33.0204 101.11 159.689 165.231 246.906 187.387Z" fill="url(#paint2_linear_385_150)"/>
<path d="M284.201 254.977C284.222 287.467 312.563 317.288 326.879 327.42C298.022 325.974 278.579 303.172 272.464 291.951C251.917 239.522 226.047 221.783 215.681 219.468C231.656 216.407 268.116 241.387 284.201 254.977Z" fill="url(#paint3_linear_385_150)"/>
<path d="M210.563 366.576C265.637 395.605 285.788 347.091 323.084 336.867L320.127 335.593C305.409 327.764 243.891 362.055 210.563 366.576Z" fill="url(#paint4_linear_385_150)"/>
<path d="M295.996 327.561C266.394 326.691 216.123 374.197 153.403 329.317C203.627 340.091 282.201 302.843 295.996 327.561Z" fill="url(#paint5_linear_385_150)"/>
<path d="M277.633 312.465C232.117 320.105 130.175 322.544 96.4454 276.816C145.728 296.581 251.36 284.178 277.633 312.465Z" fill="url(#paint6_linear_385_150)"/>
<path d="M193.656 282.473C233.764 282.503 253.963 290.018 259.049 293.771C244.395 267.397 188.884 256.019 162.96 253.627C148.478 253.135 81.7987 222.903 50.269 207.849C75.9613 264.046 156.565 281.014 193.656 282.473Z" fill="url(#paint7_linear_385_150)"/>
<path d="M173.192 239.328C196.666 240.164 233.286 256.812 248.662 265.032C238.304 235.73 159.225 205.282 120.98 193.721C100.898 187.847 45.954 146.067 20.9923 125.911C51.6017 203.662 135.213 233.919 173.192 239.328Z" fill="url(#paint8_linear_385_150)"/>
<defs>
<linearGradient id="paint0_linear_385_150" x1="503.094" y1="219.79" x2="319.268" y2="416.954" gradientUnits="userSpaceOnUse">
<stop stop-color="#D60000"/>
<stop offset="1" stop-color="#FF6534" stop-opacity="0"/>
</linearGradient>
<linearGradient id="paint1_linear_385_150" x1="492.525" y1="240.882" x2="391.216" y2="416.055" gradientUnits="userSpaceOnUse">
<stop stop-color="#FEBA01"/>
<stop offset="1" stop-color="#FE5F2F" stop-opacity="0.5"/>
</linearGradient>
<linearGradient id="paint2_linear_385_150" x1="329.137" y1="323.417" x2="-3.32206" y2="90.1979" gradientUnits="userSpaceOnUse">
<stop offset="0.0900711" stop-color="#743397"/>
<stop offset="0.492229" stop-color="#D60000"/>
<stop offset="0.924874" stop-color="#FEBA01"/>
</linearGradient>
<linearGradient id="paint3_linear_385_150" x1="329.137" y1="323.417" x2="-3.32206" y2="90.1979" gradientUnits="userSpaceOnUse">
<stop offset="0.0900711" stop-color="#743397"/>
<stop offset="0.492229" stop-color="#D60000"/>
<stop offset="0.924874" stop-color="#FEBA01"/>
</linearGradient>
<linearGradient id="paint4_linear_385_150" x1="329.137" y1="323.417" x2="-3.32206" y2="90.1979" gradientUnits="userSpaceOnUse">
<stop offset="0.0900711" stop-color="#743397"/>
<stop offset="0.492229" stop-color="#D60000"/>
<stop offset="0.924874" stop-color="#FEBA01"/>
</linearGradient>
<linearGradient id="paint5_linear_385_150" x1="329.137" y1="323.417" x2="-3.32206" y2="90.1979" gradientUnits="userSpaceOnUse">
<stop offset="0.0900711" stop-color="#743397"/>
<stop offset="0.492229" stop-color="#D60000"/>
<stop offset="0.924874" stop-color="#FEBA01"/>
</linearGradient>
<linearGradient id="paint6_linear_385_150" x1="329.137" y1="323.417" x2="-3.32206" y2="90.1979" gradientUnits="userSpaceOnUse">
<stop offset="0.0900711" stop-color="#743397"/>
<stop offset="0.492229" stop-color="#D60000"/>
<stop offset="0.924874" stop-color="#FEBA01"/>
</linearGradient>
<linearGradient id="paint7_linear_385_150" x1="329.137" y1="323.417" x2="-3.32206" y2="90.1979" gradientUnits="userSpaceOnUse">
<stop offset="0.0900711" stop-color="#743397"/>
<stop offset="0.492229" stop-color="#D60000"/>
<stop offset="0.924874" stop-color="#FEBA01"/>
</linearGradient>
<linearGradient id="paint8_linear_385_150" x1="329.137" y1="323.417" x2="-3.32206" y2="90.1979" gradientUnits="userSpaceOnUse">
<stop offset="0.0900711" stop-color="#743397"/>
<stop offset="0.492229" stop-color="#D60000"/>
<stop offset="0.924874" stop-color="#FEBA01"/>
</linearGradient>
</defs>
</svg>
